<?xml version="1.0" encoding="UTF-8" standalone="no"?>
<svg width="48px" height="48px" viewBox="0 0 48 48" version="1.1" xmlns="http://www.w3.org/2000/svg" xmlns:xlink="http://www.w3.org/1999/xlink">
    <!-- Generator: Sketch 3.8.3 (29802) - http://www.bohemiancoding.com/sketch -->
    <title>r2-d2</title>
    <desc>Created with Sketch.</desc>
    <defs></defs>
    <g id="Page-1" stroke="none" stroke-width="1" fill="none" fill-rule="evenodd">
        <g id="r2-d2" fill="#244356">
            <path d="M4.9523332,41.0721649 C4.13371052,41.0721649 3.46779711,40.4062515 3.46779711,39.5876289 C3.46779711,38.7690062 4.13371052,38.1030928 4.9523332,38.1030928 C5.77095588,38.1030928 6.43686928,38.7690062 6.43686928,39.5876289 C6.43686928,40.4062515 5.77095093,41.0721649 4.9523332,41.0721649 L4.9523332,41.0721649 Z M4.9523332,39.0927835 C4.67953979,39.0927835 4.45748784,39.314593 4.45748784,39.5876289 C4.45748784,39.8606647 4.67953979,40.0824742 4.9523332,40.0824742 C5.2251266,40.0824742 5.44717856,39.8606647 5.44717856,39.5876289 C5.44717856,39.314593 5.22512165,39.0927835 4.9523332,39.0927835 L4.9523332,39.0927835 Z" id="Shape"></path>
            <path d="M10.3956322,5.44329897 C9.57700948,5.44329897 8.91109608,4.77738557 8.91109608,3.95876289 C8.91109608,3.14014021 9.57700948,2.4742268 10.3956322,2.4742268 C11.2142548,2.4742268 11.8801682,3.14014021 11.8801682,3.95876289 C11.8801682,4.77738557 11.2142499,5.44329897 10.3956322,5.44329897 L10.3956322,5.44329897 Z M10.3956322,3.46391753 C10.1228388,3.46391753 9.9007868,3.68572701 9.9007868,3.95876289 C9.9007868,4.23179876 10.1228388,4.45360825 10.3956322,4.45360825 C10.6684256,4.45360825 10.8904775,4.23179876 10.8904775,3.95876289 C10.8904775,3.68572701 10.6684206,3.46391753 10.3956322,3.46391753 L10.3956322,3.46391753 Z" id="Shape"></path>
            <path d="M44.0451167,5.44329897 C43.226494,5.44329897 42.5605806,4.77738557 42.5605806,3.95876289 C42.5605806,3.14014021 43.226494,2.4742268 44.0451167,2.4742268 C44.8637394,2.4742268 45.5296528,3.14014021 45.5296528,3.95876289 C45.5296528,4.77738557 44.8637394,5.44329897 44.0451167,5.44329897 L44.0451167,5.44329897 Z M44.0451167,3.46391753 C43.7723233,3.46391753 43.5502713,3.68572701 43.5502713,3.95876289 C43.5502713,4.23179876 43.7723233,4.45360825 44.0451167,4.45360825 C44.3179101,4.45360825 44.5399621,4.23179876 44.5399621,3.95876289 C44.5399621,3.68572701 44.3179101,3.46391753 44.0451167,3.46391753 L44.0451167,3.46391753 Z" id="Shape"></path>
            <g id="Group" transform="translate(11.876289, 0.000000)">
                <path d="M2.89950186,21.0357625 C2.55736082,21.0357625 2.2246466,20.8584099 2.04149443,20.5409171 C1.76821608,20.0673353 1.93034227,19.4623076 2.4036866,19.1887918 L23.8308767,6.81765773 C24.3039736,6.5451068 24.9099662,6.70651052 25.1827596,7.18009237 C25.4560379,7.65367423 25.2939068,8.25870186 24.8205674,8.53221773 L3.39337732,20.9033518 C3.23753072,20.9932355 3.06742763,21.0357625 2.89950186,21.0357625 L2.89950186,21.0357625 Z" id="Shape"></path>
                <path d="M20.8407835,39.2464577 C20.6503819,39.2464577 20.4604701,39.1918515 20.2954392,39.0826392 L16.6017353,36.6441748 C16.1455472,36.3431109 16.019906,35.7293889 16.3212124,35.2732008 C16.6222763,34.8170128 17.2367258,34.6908866 17.6924289,34.9924355 L20.875581,37.0940784 L30.1012553,31.7672412 L29.8726812,27.9602177 C29.840061,27.4146309 30.2558944,26.9453988 30.8014812,26.913021 C31.3432033,26.8753287 31.8158153,27.2957542 31.8486779,27.841341 L32.1137369,32.2591868 C32.1362078,32.6337056 31.9453262,32.9884058 31.6205839,33.1759076 L21.3356289,39.114052 C21.1821971,39.2024808 21.0113715,39.2464577 20.8407835,39.2464577 L20.8407835,39.2464577 Z" id="Shape"></path>
                <path d="M25.2424429,39.4441039 C23.9717443,39.4441039 22.7092602,39.0014499 21.7012058,38.1388503 C21.2858524,37.7836652 21.2372882,37.1588239 21.5927159,36.743713 C21.947901,36.3276371 22.5724998,36.2802804 22.9880907,36.6349806 C24.1012503,37.587459 25.7027332,37.7358186 26.9729468,37.0017649 C28.2424379,36.2691612 28.9153584,34.8092734 28.6476421,33.3687093 C28.5476091,32.8313369 28.9023142,32.314748 29.4396866,32.2152 C29.9758515,32.1122672 30.4934054,32.4693872 30.5936808,33.0072445 C31.0145913,35.2702911 29.9572454,37.5647505 27.9626425,38.7163299 C27.1169616,39.2044157 26.1775274,39.4441039 25.2424429,39.4441039 L25.2424429,39.4441039 Z" id="Shape"></path>
                <path d="M6.68404948,7.30525361 C5.69435876,7.30525361 4.70587546,7.03560247 3.83023175,6.49726515 C3.36462186,6.21070021 3.21916701,5.60132289 3.50548948,5.13547546 C3.79133196,4.66962309 4.4009468,4.5251332 4.86679918,4.8107332 C5.95386557,5.47906639 7.31348289,5.4974301 8.41600825,4.86098969 C9.51901856,4.22455423 10.1822796,3.03721237 10.1477245,1.76289155 C10.1327456,1.21633979 10.5635579,0.761601649 11.1101097,0.74662268 C11.6390252,0.723909278 12.1113996,1.16269856 12.1261361,1.70877031 C12.1807423,3.71038021 11.1383802,5.57523464 9.40569402,6.57506969 C8.56219052,7.06217567 7.62276124,7.30525361 6.68404948,7.30525361 L6.68404948,7.30525361 Z" id="Shape"></path>
                <path d="M11.6999208,12.5262581 C11.3577798,12.5262581 11.0250656,12.3489056 10.8419134,12.0314128 L9.35737732,9.46005278 C9.22617402,9.23292866 9.19041649,8.96279258 9.25855175,8.70908536 C9.32644948,8.45537814 9.49220289,8.23936825 9.71956948,8.10792742 L14.005247,5.63370062 C14.4783439,5.36066474 15.0838565,5.52303835 15.3571299,5.99613526 L16.841666,8.56749526 C16.9728693,8.79461938 17.0086268,9.06475546 16.9404915,9.31846268 C16.8725938,9.5721699 16.7068404,9.78817979 16.4794738,9.91962062 L12.1937963,12.3938474 C12.0379497,12.4837311 11.8678466,12.5262581 11.6999208,12.5262581 L11.6999208,12.5262581 Z M11.5663027,9.32764206 L12.061148,10.1844421 L14.6327505,8.69990598 L14.1379052,7.84310598 L11.5663027,9.32764206 L11.5663027,9.32764206 Z" id="Shape"></path>
                <path d="M1.72568907,18.2851151 C1.38354804,18.2851151 1.05107629,18.1077625 0.867681649,17.7902697 C0.594403299,17.3171728 0.756534433,16.7116602 1.22987381,16.4381443 L6.91866557,13.1535093 L6.42382021,12.2967093 L1.73655588,15.0028948 C1.26297402,15.2754458 0.657946392,15.1140421 0.38467299,14.6404602 C0.111399588,14.1668784 0.273525773,13.5618507 0.746865155,13.2883348 L6.29116701,10.0873039 C6.51829113,9.95586309 6.78794722,9.92010062 7.04213443,9.98872082 C7.29559918,10.0563761 7.51185155,10.2226144 7.64305485,10.4497386 L9.12759093,13.0210986 C9.40086928,13.4946804 9.23873814,14.099708 8.76539876,14.3732239 L2.21956948,18.1527043 C2.06372289,18.242588 1.89361485,18.2851151 1.72568907,18.2851151 L1.72568907,18.2851151 Z" id="Shape"></path>
                <path d="M13.2912544,39.0347926 C12.9527406,39.0347926 12.6234062,38.8613047 12.4388041,38.5491266 L10.0856313,34.5748998 C9.80703835,34.1046977 9.96264247,33.4977402 10.4328445,33.2193897 C10.9040115,32.9410392 11.5107266,33.0971282 11.7885971,33.5668454 L13.6430598,36.6987711 L33.3655967,25.3115282 L23.4686895,8.16977814 C21.9486334,5.53704742 19.4942202,3.65382928 16.5577682,2.86661938 C13.6217963,2.08134433 10.554146,2.48388619 7.92141031,4.00418474 C5.28867959,5.52399835 3.40522392,7.97841155 2.61849402,10.914621 C1.83176412,13.8513155 2.23551835,16.9184858 3.75557443,19.5512165 L8.96860701,28.5806944 C9.24188536,29.0542763 9.07975423,29.6593039 8.60641485,29.9328198 C8.13307546,30.2053707 7.52756289,30.0434821 7.25453196,29.5703852 L2.04149938,20.5409072 C0.25686433,17.4505386 -0.217202474,13.8498656 0.706525361,10.4023769 C1.6302532,6.9553732 3.8411134,4.0742499 6.93172454,2.28961979 C10.0223357,0.505469691 13.6237361,0.0314028866 17.0702548,0.954888247 C20.5172586,1.87837361 23.3983819,4.08922887 25.1827695,7.18008247 L35.5745221,25.1791175 C35.8478004,25.6526994 35.6856693,26.257727 35.2123299,26.5312429 L13.7851398,38.9023769 C13.6292833,38.9922705 13.4591802,39.0347926 13.2912544,39.0347926 L13.2912544,39.0347926 Z" id="Shape"></path>
            </g>
            <path d="M45.5296528,48 L31.6739827,48 C31.3557625,48 31.0571184,47.8472957 30.8710664,47.5887588 C30.6850144,47.3307068 30.6345155,46.9991951 30.7350334,46.6971662 L32.7144148,40.7590219 C32.8492404,40.3550252 33.2273814,40.0824742 33.6533641,40.0824742 L43.5502713,40.0824742 C43.976254,40.0824742 44.3543951,40.3550252 44.4892206,40.7590219 L46.4686021,46.6971662 C46.5691151,46.9991951 46.5186161,47.3307019 46.3325691,47.5887588 C46.1465221,47.8472957 45.847873,48 45.5296528,48 L45.5296528,48 Z M33.047134,46.0206186 L44.1565113,46.0206186 L42.8370062,42.0618557 L34.3666441,42.0618557 L33.047134,46.0206186 L33.047134,46.0206186 Z" id="Shape"></path>
            <path d="M22.7667662,48 L8.91109113,48 C8.59287093,48 8.2942268,47.8472957 8.10817485,47.5887588 C7.92212289,47.3307068 7.87162392,46.9991951 7.97214186,46.6971662 L9.9515233,40.7590219 C10.0863538,40.3550252 10.4644948,40.0824742 10.8904775,40.0824742 L20.7873897,40.0824742 C21.2133724,40.0824742 21.5915134,40.3550252 21.726339,40.7590219 L23.7057204,46.6971662 C23.8062334,46.9991951 23.7557344,47.3307019 23.5696874,47.5887588 C23.3836355,47.8472957 23.0849864,48 22.7667662,48 L22.7667662,48 Z M10.2842425,46.0206186 L21.3936198,46.0206186 L20.0741146,42.0618557 L11.6037476,42.0618557 L10.2842425,46.0206186 L10.2842425,46.0206186 Z" id="Shape"></path>
            <path d="M40.5811992,42.0618557 C40.0346474,42.0618557 39.5915085,41.6187167 39.5915085,41.0721649 L39.5915085,36.8031588 C39.5915085,36.256607 40.0346474,35.813468 40.5811992,35.813468 C41.1277509,35.813468 41.5708899,36.256607 41.5708899,36.8031588 L41.5708899,41.0721649 C41.5708899,41.6187167 41.1277559,42.0618557 40.5811992,42.0618557 L40.5811992,42.0618557 Z" id="Shape"></path>
            <path d="M36.6224363,42.0618557 C36.0758845,42.0618557 35.6327456,41.6187167 35.6327456,41.0721649 L35.6327456,38.42832 C35.6327456,37.8817682 36.0758845,37.4386293 36.6224363,37.4386293 C37.168988,37.4386293 37.612127,37.8817682 37.612127,38.42832 L37.612127,41.0721649 C37.612127,41.6187167 37.168993,42.0618557 36.6224363,42.0618557 L36.6224363,42.0618557 Z" id="Shape"></path>
            <path d="M28.2100652,22.7628866 C27.2846449,22.7628866 26.4148008,22.4023819 25.7604816,21.7480676 C25.1064049,21.0942334 24.7461476,20.2243893 24.7461476,19.2989691 C24.7461476,18.3735489 25.1064099,17.5037047 25.7607241,16.8498705 C26.4148008,16.1955513 27.2846449,15.8350515 28.2100652,15.8350515 C29.1352429,15.8350515 30.005087,16.1955563 30.6594062,16.8498705 L30.6594062,16.8498705 C31.3137254,17.5037047 31.6739827,18.3735489 31.6739827,19.2989691 C31.6739827,20.2243893 31.3137204,21.0942334 30.6594062,21.7480676 C30.0053295,22.4023819 29.1354854,22.7628866 28.2100652,22.7628866 L28.2100652,22.7628866 Z M28.2100652,17.814433 C27.8135604,17.814433 27.440734,17.9690722 27.1604536,18.2493575 C26.8799307,18.5296429 26.7255291,18.9027068 26.7255291,19.2989691 C26.7255291,19.6952313 26.8799258,20.0683002 27.1602111,20.3485806 C27.7212619,20.9091464 28.6991109,20.9091464 29.2596816,20.3485806 C29.5402045,20.0682953 29.6946062,19.6952313 29.6946062,19.2989691 C29.6946062,18.9027068 29.5402095,18.5296379 29.2599241,18.2493575 C29.2599241,18.2493575 29.2599241,18.2493575 29.2596816,18.2493575 C28.9793963,17.9690722 28.6065699,17.814433 28.2100652,17.814433 L28.2100652,17.814433 Z" id="Shape"></path>
            <path d="M3.46779711,21.2783505 C1.5577633,21.2783505 0.00387958763,19.7242293 0.00387958763,17.814433 C0.00387958763,15.9046367 1.5577633,14.3505155 3.46779711,14.3505155 C5.37783093,14.3505155 6.93171464,15.9046367 6.93171464,17.814433 C6.93171464,19.7242293 5.37783093,21.2783505 3.46779711,21.2783505 L3.46779711,21.2783505 Z M3.46779711,16.3298969 C2.64917443,16.3298969 1.98326103,16.9958103 1.98326103,17.814433 C1.98326103,18.6330557 2.64917443,19.2989691 3.46779711,19.2989691 C4.28641979,19.2989691 4.9523332,18.6330557 4.9523332,17.814433 C4.9523332,16.9958103 4.28641485,16.3298969 3.46779711,16.3298969 L3.46779711,16.3298969 Z" id="Shape"></path>
            <path d="M8.91109608,30.185567 C8.36454433,30.185567 7.92140536,29.742428 7.92140536,29.1958763 C7.92140536,28.6493245 8.36454433,28.2061856 8.91109608,28.2061856 C9.72971876,28.2061856 10.3956322,27.5402722 10.3956322,26.7216495 C10.3956322,26.1750977 10.8387711,25.7319588 11.3853229,25.7319588 C11.9318746,25.7319588 12.3750136,26.1750977 12.3750136,26.7216495 C12.3750136,28.6314458 10.8211299,30.185567 8.91109608,30.185567 L8.91109608,30.185567 Z" id="Shape"></path>
            <path d="M13.8595497,30.185567 C11.9495109,30.185567 10.3956272,28.6314458 10.3956272,26.7216495 C10.3956272,26.1750977 10.8387662,25.7319588 11.3853179,25.7319588 C11.9318697,25.7319588 12.3750087,26.1750977 12.3750087,26.7216495 C12.3750087,27.5402722 13.0409221,28.2061856 13.8595497,28.2061856 C14.4061014,28.2061856 14.8492404,28.6493245 14.8492404,29.1958763 C14.8492404,29.742428 14.4061064,30.185567 13.8595497,30.185567 L13.8595497,30.185567 Z" id="Shape"></path>
            <path d="M11.3853229,32.6597938 C10.8387711,32.6597938 10.3956322,32.2166548 10.3956322,31.6701031 C10.3956322,30.8514804 9.72971876,30.185567 8.91109608,30.185567 C8.36454433,30.185567 7.92140536,29.742428 7.92140536,29.1958763 C7.92140536,28.6493245 8.36454433,28.2061856 8.91109608,28.2061856 C10.8211299,28.2061856 12.3750136,29.7603068 12.3750136,31.6701031 C12.3750136,32.2166548 11.9318746,32.6597938 11.3853229,32.6597938 L11.3853229,32.6597938 Z" id="Shape"></path>
            <path d="M11.3853229,32.6597938 C10.8387711,32.6597938 10.3956322,32.2166548 10.3956322,31.6701031 C10.3956322,29.7603068 11.9495159,28.2061856 13.8595546,28.2061856 C14.4061064,28.2061856 14.8492454,28.6493245 14.8492454,29.1958763 C14.8492454,29.742428 14.4061064,30.185567 13.8595546,30.185567 C13.040932,30.185567 12.3750136,30.8514804 12.3750136,31.6701031 C12.3750136,32.2166548 11.9318746,32.6597938 11.3853229,32.6597938 L11.3853229,32.6597938 Z" id="Shape"></path>
            <path d="M13.3637344,42.0618557 C13.2020882,42.0618557 13.0380272,42.0222285 12.8862878,41.9386293 C12.4078713,41.6742928 12.234146,41.0721649 12.49824,40.5937534 L25.2289138,17.5351175 C25.4930078,17.057186 26.0946507,16.8827332 26.5737897,17.1470697 C27.0522062,17.4114062 27.2259315,18.013534 26.9618375,18.4919456 L14.2311687,41.5505814 C14.0506738,41.8772536 13.7123975,42.0618557 13.3637344,42.0618557 L13.3637344,42.0618557 Z" id="Shape"></path>
            <path d="M18.8070384,42.0618557 C18.6429773,42.0618557 18.4764965,42.0212635 18.3233072,41.9347596 C17.8465831,41.6670384 17.6774449,41.0639456 17.9451662,40.5874639 L29.4126285,20.1775076 C29.6805872,19.701026 30.2844074,19.5309229 30.7601616,19.7996091 C31.2368858,20.0673303 31.4060239,20.6704231 31.1383027,21.1469047 L19.6708404,41.556861 C19.4891431,41.8801534 19.1532866,42.0618557 18.8070384,42.0618557 L18.8070384,42.0618557 Z" id="Shape"></path>
            <path d="M28.2165922,26.2277691 C28.0365823,26.228254 27.8560874,26.2210045 27.6753551,26.2069905 C27.1302532,26.1644635 26.7231142,25.6879819 26.7653988,25.1433649 C26.8079258,24.5977781 27.2841649,24.1899167 27.8290243,24.2334087 C28.8150928,24.3112132 29.7897996,24.0922986 30.6519142,23.6032528 C33.0251431,22.2564421 33.8604371,19.2303489 32.5138689,16.85712 C32.2442177,16.3816033 32.4109361,15.7775456 32.8864528,15.5078944 C33.361727,15.2387233 33.9657847,15.4049616 34.2356784,15.8799934 C36.1205839,19.2028008 34.9511258,23.4399142 31.6285608,25.3245823 C30.5801518,25.9194606 29.4102136,26.2277691 28.2165922,26.2277691 L28.2165922,26.2277691 Z" id="Shape"></path>
        </g>
    </g>
</svg>